<svg width="1440" height="528" viewBox="0 0 1440 528" fill="none" xmlns="http://www.w3.org/2000/svg">
<path opacity="0.3" d="M-82.7007 427.388C-76.7164 397.055 -67.8406 367.722 -56.2625 340.016C-52.3044 330.5 -47.4961 320.444 -37.6187 314.302C-27.7412 308.16 -15.2598 307.381 -3.12561 308.138C0.519775 300.309 4.00903 292.416 7.84534 284.543C10.9874 278.055 14.0773 271.567 16.959 264.95C18.4344 261.554 19.858 258.116 21.212 254.677C22.1842 252.211 23.2258 246.524 24.8923 244.772C21.2087 248.606 16.9561 251.502 12.3761 253.293C22.6007 228.876 31.4714 208.266 36.4015 182.833C33.9089 186.79 30.4954 189.691 26.6283 191.137C31.5149 180.999 35.0334 169.93 37.0438 158.373C36.6492 159.972 35.8558 161.373 34.7789 162.372C33.702 163.372 32.3975 163.918 31.0547 163.931C39.7344 137.979 48.9 104.479 49.0563 100.781C48.1453 101.856 47.0175 102.603 45.7927 102.943C48.4435 99.7582 50.4847 95.8701 51.7645 91.5677C50.0286 93.5358 49.4381 95.266 47.546 95.266C53.1183 76.7318 54.0385 69.3138 55.1667 58.3058C54.0037 59.6466 53.6566 60.2306 52.9276 60.2306C56.0817 51.6784 58.4125 42.6912 59.8713 33.4566C58.9338 35.4463 58.795 34.3217 57.875 35.3598C60.7219 28.1364 64.1416 7.13684 64.1416 0C65.0096 10.0348 66.8149 20.9131 71.0853 29.6936C69.7903 28.6923 68.7113 27.3112 67.9431 25.671C72.6648 53.3749 73.3419 76.5372 86.4309 96.8015L81.6398 94.9848C82.3798 100.006 83.7878 104.837 85.806 109.28L80.9801 106.49C86.292 125.673 89.3125 134.432 99.2767 151.323C96.0179 149.771 93.115 147.246 90.8229 143.969L100.249 165.942C96.1176 165.812 94.3469 164.082 91.1182 161.098C96.7947 182.097 106.325 209.801 115.733 228.379C112.625 228.194 109.666 226.665 107.366 224.053C108.921 229.503 110.971 234.713 113.477 239.581C116.928 229.363 119.703 218.81 121.774 208.028C119.33 212.123 115.91 215.151 112.001 216.679C116.901 206.177 120.417 194.765 122.417 182.876C122.042 184.504 121.258 185.939 120.18 186.97C119.102 188.002 117.787 188.576 116.428 188.607C125.107 161.833 134.273 127.23 134.429 123.424C133.533 124.554 132.404 125.355 131.166 125.738C133.828 122.421 135.868 118.411 137.138 113.995C135.402 116.006 134.811 117.801 132.919 117.801C138.491 98.6613 139.411 90.919 140.54 79.6514C139.359 81.0356 139.03 81.6411 138.3 81.6411C141.408 71.6711 143.04 67.5837 145.244 54.0021C144.307 56.0566 144.151 54.8888 143.248 55.9701C146.095 48.5305 149.515 26.8605 149.515 19.4641C150.382 29.8449 152.188 41.0909 156.458 50.1093C155.148 49.0687 154.063 47.6427 153.299 45.9569C158.038 74.5691 158.715 98.4667 171.804 119.488L166.995 117.628C167.747 122.792 169.16 127.772 171.179 132.377L166.336 129.501C171.665 149.29 174.686 158.33 184.65 175.761C181.367 174.15 178.461 171.541 176.196 168.17L185.622 190.878C181.49 190.727 179.72 188.953 176.491 185.861C181.338 204.212 187.22 222.113 194.093 239.43C198.294 222.129 201.679 205.562 201.645 203.292C200.966 204.237 200.097 204.938 199.128 205.325C201.108 202.565 202.572 199.293 203.415 195.744C202.131 197.431 201.679 198.88 200.186 199.031C202.807 189.25 204.303 179.057 204.63 168.754C203.762 169.922 203.502 170.419 202.894 170.484C205.027 163.383 206.478 155.993 207.217 148.468C206.557 150.133 206.384 149.246 205.707 150.155C207.668 144.142 209.456 127.036 209.179 121.283C210.342 129.285 212.286 137.871 216.122 144.575C215.033 143.87 214.098 142.846 213.397 141.59C218.466 163.477 220.063 182.011 231.485 197.258L227.545 196.176C228.372 200.149 229.727 203.921 231.555 207.336L227.545 205.476C232.753 220.442 235.513 227.254 244.297 240.079C241.604 239.093 239.152 237.287 237.162 234.824C240.009 240.475 242.867 246.12 245.737 251.757C242.404 251.974 240.911 250.719 238.168 248.557C243.028 262.932 248.755 276.827 255.302 290.123C259.573 278.12 263.218 266.161 263.305 264.539C262.704 265.148 261.997 265.571 261.239 265.771C262.875 264.076 264.171 261.928 265.023 259.5C263.947 260.581 263.548 261.533 262.35 261.533C264.814 255.127 266.438 248.271 267.159 241.225C266.429 241.96 266.204 242.285 265.752 242.285C267.717 237.635 269.182 232.683 270.11 227.557C269.502 228.66 269.415 228.033 268.843 228.617C270.997 222.438 272.334 215.864 272.8 209.153C273.194 214.958 274.72 220.555 277.244 225.459C276.444 224.957 275.758 224.214 275.248 223.296C278.234 238.543 278.72 251.26 286.931 262.398L283.91 261.403C284.387 264.209 285.282 266.879 286.549 269.275L283.494 267.74C285.989 276.829 289.92 285.205 295.055 292.372C293.044 291.562 291.213 290.177 289.708 288.328L295.68 300.418C293.568 300.366 291.531 299.429 289.899 297.757C293.101 307.939 296.967 317.776 301.46 327.17C303.723 322.02 305.667 316.663 307.276 311.144C306.655 311.672 305.951 312.026 305.21 312.182C306.793 310.854 308.092 309.065 308.995 306.97C307.918 307.879 307.519 308.657 306.321 308.657C308.755 303.45 310.386 297.721 311.13 291.767C310.401 292.372 310.175 292.654 309.724 292.654C311.662 288.869 313.131 284.743 314.081 280.413C313.49 281.321 313.386 280.802 312.814 281.278C314.945 276.255 316.288 270.772 316.772 265.123C317.203 270.072 318.743 274.771 321.215 278.683C320.446 278.267 319.763 277.639 319.219 276.844C322.205 289.518 322.691 300.093 330.902 309.285L327.881 308.463C328.382 310.834 329.281 313.045 330.52 314.951L327.465 313.696C330.095 321.477 334.038 328.462 339.026 334.177C337.073 333.544 335.251 332.402 333.679 330.825C335.676 334.155 337.655 337.507 339.651 340.86C337.597 340.846 335.59 340.096 333.87 338.697C336.283 345.185 339.79 350.916 342.186 357.318C343.922 361.859 345.241 368.131 349.702 369.537L342.967 367.266C344.847 370.282 346.97 373.05 349.303 375.527C347.948 375.413 346.642 374.854 345.518 373.905C347.256 377.503 349.829 380.361 352.896 382.102C351.99 380.509 351.504 378.604 351.507 376.652L355.778 383.335C354.946 381.162 354.645 378.733 354.91 376.349C355.742 379.589 357.563 382.291 359.979 383.875C359.342 382.195 359.035 380.349 359.083 378.492C359.131 376.634 359.534 374.817 360.256 373.192C360.572 377.132 361.776 380.88 363.728 384.005C363.451 382.21 363.381 380.375 363.52 378.555L366.992 385.043C367.379 383.078 367.508 381.047 367.374 379.031C368.057 380.244 368.639 381.541 369.11 382.902L368.884 376.414C369.988 377.657 370.837 379.21 371.362 380.944C371.888 382.678 372.074 384.543 371.905 386.384C373.641 383.075 375.654 379.788 377.112 376.306C377.98 374.143 378.397 370.813 379.647 369.083C378.914 370.069 377.923 370.698 376.852 370.856C378.498 367.713 379.838 364.337 380.844 360.799C379.817 362.031 378.467 362.76 377.043 362.854C381.647 352.544 385.393 341.674 388.222 330.414C387.132 331.825 385.645 332.654 384.073 332.728C385.52 329.21 386.949 325.685 388.361 322.152C387.338 323.712 386.02 324.931 384.525 325.699C388.311 319.167 391.128 311.842 392.84 304.072L390.635 305.413C391.568 303.258 392.213 300.928 392.545 298.514L390.358 299.401C396.312 289.647 396.624 278.488 398.759 265.144C398.415 265.924 397.927 266.591 397.336 267.091C399.175 262.648 400.262 257.783 400.53 252.795C400.854 258.604 401.812 264.33 403.377 269.816C402.96 269.297 402.891 269.816 402.457 268.886C403.108 273.345 404.162 277.698 405.599 281.862C405.269 281.862 405.113 281.559 404.575 280.91C405.094 287.009 406.261 292.994 408.047 298.709C407.179 298.709 406.901 297.887 406.12 296.936C406.696 298.993 407.626 300.867 408.845 302.429C408.278 302.243 407.762 301.869 407.352 301.347C409.588 311.68 412.324 321.835 415.546 331.755C414.92 331.734 414.316 331.462 413.825 330.979C413.334 330.495 412.981 329.827 412.82 329.073C413.733 334.613 415.338 339.94 417.577 344.861C415.797 344.136 414.244 342.737 413.133 340.86C415.39 353.1 419.4 363.027 424.052 374.77C421.954 373.896 420.018 372.506 418.358 370.683C419.124 372.152 419.709 373.756 420.094 375.441C420.719 377.106 421.361 378.75 422.038 380.393C423.396 384.187 424.944 387.871 426.673 391.423C427.401 392.435 428.197 393.368 429.051 394.213C429.242 394.407 429.555 394.559 429.694 394.321C429.736 394.174 429.736 394.014 429.694 393.867C429.694 392.634 429.555 391.423 429.468 390.212C430.472 391.283 431.385 392.478 432.193 393.78C433.01 395.07 434.166 395.958 435.457 396.289C435.283 394.126 433.721 392.137 434.016 389.952C435.544 392.634 437.158 395.229 438.877 397.695C439.102 398.019 439.467 398.365 439.727 398.106C439.357 395.69 439.194 393.233 439.241 390.774C440.112 393.417 441.433 395.793 443.112 397.738C442.879 396.301 442.939 394.814 443.286 393.413L445.873 398.949C446.098 399.425 446.549 399.987 446.897 399.641C446.987 399.521 447.053 399.376 447.089 399.218C447.125 399.06 447.13 398.894 447.105 398.733C447.003 396.441 446.67 394.174 446.116 391.985C447.193 394.88 448.453 397.664 449.883 400.312C450.056 400.636 450.282 400.982 450.577 400.982C450.872 400.982 451.219 400.398 451.323 399.879C451.772 397.221 451.953 394.504 451.861 391.791C452.764 394.696 453.444 397.701 453.893 400.766C455.59 397.625 456.601 393.988 456.826 390.212C457.191 394.04 457.573 397.889 457.937 401.717C458.593 398.725 458.965 395.648 459.048 392.548C459.824 396.152 460.68 399.757 461.617 403.361C462.086 403.512 462.312 402.626 462.312 401.999V396.7L465.28 403.577C465.509 400.689 465.398 397.775 464.95 394.927C466.869 397.412 467.928 400.735 467.901 404.183C469.012 401.609 470.141 399.057 471.269 396.484C470.89 399.527 471.092 402.639 471.859 405.567C471.981 406.021 472.189 406.54 472.554 406.627C472.918 406.713 473.387 405.805 473.422 405.091C473.505 403.478 473.358 401.86 472.988 400.312C475.168 402.191 476.915 404.749 478.057 407.73C478.141 405.422 477.708 403.131 476.807 401.112C478.945 403.1 480.715 405.637 481.997 408.551C482.238 406.023 482.173 403.465 481.806 400.96C483.733 402.883 485.303 405.303 486.407 408.054C487.189 405.828 487.743 403.488 488.056 401.09C488.419 404.054 489.428 406.836 490.972 409.135C491.628 406.44 491.549 403.55 490.746 400.917C492.328 402.71 493.613 404.87 494.531 407.275C494.517 405.446 494.337 403.625 493.992 401.847C495.753 404.134 497.103 406.862 497.951 409.849C498.49 407.919 498.627 405.851 498.35 403.837C499.201 405.664 499.877 407.609 500.363 409.633L501.926 403.274C501.893 404.407 502.058 405.534 502.409 406.579C502.76 407.625 503.288 408.563 503.957 409.33C503.796 407.895 503.796 406.439 503.957 405.005L507.307 411.882C507.706 411.882 507.776 411.103 507.741 410.584L507.255 404.875C508.55 406.957 509.624 409.24 510.449 411.666C510.952 411.493 511.091 410.649 511.126 409.979C511.222 408.301 511.222 406.617 511.126 404.94C512.305 406.926 513.251 409.111 513.938 411.428L516.612 403.967C516.731 406.86 517.321 409.693 518.348 412.293C518.868 412.293 519.094 411.449 519.146 410.779C519.285 409.061 519.355 407.336 519.354 405.61L524.371 412.66C523.816 410.671 523.33 408.638 522.913 406.583C524.795 408.64 526.432 411.022 527.774 413.655C527.687 411.361 527.354 409.092 526.784 406.908C528.582 408.954 529.922 411.548 530.673 414.434C531.05 411.413 531.714 408.458 532.652 405.632C532.795 407.518 533.176 409.365 533.78 411.103C534.375 412.831 535.473 414.214 536.853 414.975C536.581 413.219 536.204 411.491 535.724 409.806L540.29 414.823C540.265 412.778 539.648 410.812 538.554 409.287C540.114 410.417 541.535 411.823 542.772 413.461C542.416 412.213 542.257 410.891 542.303 409.568C542.303 408.897 542.425 408.249 542.512 407.578L548.24 416.813C548.24 414.866 548.24 412.92 548.24 410.974C549.348 412.768 550.173 414.808 550.671 416.986C551.209 416.986 551.226 415.926 551.053 415.256C550.48 412.963 549.907 410.671 549.317 408.378C551.234 410.582 552.648 413.381 553.413 416.488C554.124 414.638 554.598 412.66 554.82 410.628C555.132 412.531 555.462 414.434 555.792 416.337C556.377 413.979 557.132 411.692 558.048 409.503C558.086 412.243 558.788 414.904 560.062 417.137C560.322 417.591 560.86 418.024 561.138 417.591C560.93 416.402 560.739 415.191 560.531 413.98C562.622 416.09 565.038 417.644 567.631 418.543C565.842 417.023 564.597 414.697 564.159 412.055C566.207 414.563 568.499 416.743 570.981 418.543C569.913 416.788 569.422 414.591 569.61 412.401C571.23 415.004 573.089 417.362 575.147 419.43C575.285 417.737 574.928 416.04 574.14 414.65C575.403 415.85 576.49 417.313 577.352 418.976C577.139 416.788 576.683 414.648 575.998 412.617C577.781 414.475 579.388 416.579 580.789 418.889C580.856 416.324 580.246 413.802 579.053 411.709C580.975 413.594 582.575 415.94 583.757 418.608C583.825 416.098 583.351 413.611 582.386 411.406C584.608 413.115 585.407 416.748 587.09 419.3C587.315 418.1 587.308 416.851 587.069 415.656C586.831 414.46 586.368 413.352 585.719 412.423C587.338 413.719 588.716 415.429 589.764 417.44C589.943 415.855 590.21 414.287 590.562 412.747L593.635 419.04C593.965 419.732 594.59 420.533 595.128 420.122C595.275 419.973 595.393 419.785 595.474 419.572C595.556 419.358 595.597 419.125 595.596 418.889C595.701 418.154 595.805 417.418 595.892 416.726C596.239 417.937 596.603 419.148 597.02 420.316C597.847 418.488 598.059 416.327 597.61 414.304C599.298 415.949 600.589 418.142 601.342 420.641C601.851 419.19 602.094 417.616 602.054 416.034C602.61 417.656 603.148 419.278 603.703 420.922C604.571 420.035 604.502 418.348 604.363 416.943C604.259 415.991 604.155 415.061 604.068 414.131C606.134 415.558 607.158 418.608 608.008 421.441C608.334 419.687 608.274 417.857 607.835 416.142C609.037 417.645 609.977 419.442 610.595 421.419C610.878 419.24 610.711 417.007 610.109 414.931C611.729 416.887 612.764 419.474 613.043 422.263C613.409 419.88 614.146 417.61 615.213 415.58C615.163 418.117 615.889 420.583 617.243 422.479C617.4 422.717 617.643 422.933 617.868 422.803C618.094 422.674 618.042 422.133 617.868 421.787C617.521 420.814 617.174 419.819 616.844 418.846L620.212 422.566C620.044 421.255 619.698 419.989 619.188 418.824C620.547 420.016 621.814 421.362 622.972 422.847C622.781 420.938 622.134 419.145 621.115 417.7C622.434 418.647 623.657 419.787 624.76 421.095C624.76 419.841 624.76 418.586 624.76 417.354L629.516 422.22C629.76 422.479 630.176 422.695 630.332 422.371C630.489 422.047 630.332 421.809 630.211 421.592L627.972 417.267C629.998 418.419 631.782 420.145 633.179 422.306C633.213 420.912 632.905 419.539 632.294 418.37C633.314 419.708 634.238 421.155 635.054 422.695C634.97 420.589 635.122 418.478 635.505 416.424C636.198 418.6 637.278 420.552 638.665 422.133C638.756 422.265 638.868 422.373 638.993 422.451C639.118 422.529 639.254 422.575 639.394 422.587C638.743 421.035 638.319 419.351 638.144 417.613C639.954 419 641.529 420.815 642.779 422.955C642.513 421.091 641.99 419.298 641.234 417.656C642.401 418.557 643.489 419.608 644.48 420.792C644.21 419.56 644.093 418.284 644.133 417.007C645.213 419.672 646.82 421.95 648.803 423.625C649.028 423.82 649.341 424.015 649.549 423.798C649.149 422.515 648.819 421.2 648.56 419.862C649.885 420.828 651.09 422.03 652.136 423.431C652.466 423.863 652.865 424.361 653.334 424.317C653.106 422.612 652.505 421.018 651.598 419.711C652.841 420.478 653.918 421.605 654.74 422.998C655.017 423.452 655.312 423.971 655.746 424.015C655.852 422.146 655.482 420.285 654.688 418.694C656.099 420.227 657.275 422.066 658.159 424.123C658.159 422.068 658.281 420.014 658.333 417.959C658.825 419.987 659.513 421.933 660.381 423.755C660.455 421.583 660.623 419.417 660.885 417.267C662.015 419.755 663.477 421.986 665.207 423.863C665.346 424.015 665.537 424.188 665.711 424.101C665.884 424.015 665.936 423.409 665.815 423.02C665.45 421.917 665.086 420.857 664.739 419.711C666.127 420.338 666.926 422.198 667.967 423.539C668.106 423.712 668.332 423.885 668.471 423.712C668.041 422.151 667.531 420.627 666.943 419.148C668.524 420.541 669.909 422.251 671.04 424.209C670.872 421.835 670.141 419.576 668.939 417.721C670.514 419.087 671.874 420.802 672.949 422.782C672.988 421.279 673.122 419.782 673.349 418.305L676.734 423.777C676.855 423.971 677.029 424.188 677.22 424.101C677.411 424.015 677.428 423.798 677.463 423.582L677.845 421.117C678.333 422.46 678.914 423.748 679.581 424.966C679.581 423.236 679.72 421.484 679.772 419.732C680.548 422.211 682.006 424.265 683.886 425.528C684.074 423.329 683.685 421.113 682.775 419.213C684.381 420.318 685.614 422.107 686.247 424.252C686.386 424.728 686.611 425.334 686.993 425.312C687.096 423.408 686.772 421.506 686.056 419.819C688.108 421.187 689.721 423.394 690.621 426.069C690.879 425.814 691.08 425.482 691.208 425.104C691.335 424.726 691.384 424.314 691.35 423.906C691.274 423.091 691.08 422.3 690.777 421.571C691.872 422.379 692.702 423.643 693.121 425.139C693.121 425.42 693.312 425.766 693.538 425.745C693.763 425.723 693.867 425.161 693.798 424.793C693.572 423.604 693.329 422.414 693.104 421.225C694.597 422.176 694.84 424.771 695.968 426.372C695.998 423.95 696.435 421.563 697.253 419.365C697.578 422.007 698.506 424.476 699.926 426.48C700.085 425.122 699.858 423.737 699.284 422.566C700.672 423.439 701.776 424.883 702.408 426.653C702.456 424.402 701.901 422.195 700.828 420.381C701.932 421.475 702.966 422.675 703.918 423.971C704.109 424.231 704.283 424.512 704.474 424.793C704.651 423.334 704.901 421.889 705.22 420.468C706.119 422.38 707.191 424.158 708.414 425.766C708.623 426.047 708.918 426.35 709.213 426.242C709.348 426.168 709.458 426.038 709.526 425.874C709.86 425.035 709.928 424.07 709.716 423.171C709.63 422.587 709.543 421.982 709.474 421.398C710.858 422.871 712.032 424.626 712.945 426.588C713.099 424.786 712.846 422.966 712.216 421.333C713.563 422.714 714.613 424.49 715.271 426.502C715.515 426.502 715.601 426.112 715.619 425.81C715.642 424.423 715.478 423.041 715.133 421.722C716.438 422.946 717.433 424.613 717.997 426.523C718.217 426.119 718.37 425.664 718.448 425.185C718.525 424.706 718.526 424.212 718.448 423.733C718.27 422.786 717.995 421.87 717.632 421.008C718.471 421.523 719.158 422.356 719.594 423.387C720.038 424.419 720.393 425.506 720.653 426.631L722.528 421.181C722.492 422.84 722.772 424.485 723.344 425.983C723.465 426.242 723.708 426.502 723.882 426.329C723.924 426.274 723.956 426.21 723.977 426.139C723.998 426.068 724.007 425.993 724.003 425.918C723.85 424.379 723.986 422.816 724.402 421.354C725.337 422.952 726.37 424.456 727.492 425.853L726.954 422.436L730.287 426.761C730.354 424.811 729.916 422.885 729.037 421.268C730.142 422.385 731.16 423.631 732.075 424.988C732.421 423.682 732.868 422.421 733.412 421.225C734.436 422.652 735.478 424.058 736.537 425.42C736.722 425.709 736.96 425.939 737.231 426.091C737.369 426.158 737.521 426.162 737.661 426.103C737.8 426.043 737.919 425.924 737.995 425.766C738.065 425.507 738.065 425.226 737.995 424.966C737.839 423.841 737.665 422.803 737.509 421.614C738.821 422.706 739.89 424.194 740.616 425.939C740.641 426.038 740.681 426.128 740.735 426.206C740.788 426.285 740.854 426.348 740.928 426.393C741.31 426.566 741.501 425.788 741.432 425.247C741.26 423.929 740.895 422.66 740.356 421.506C741.892 422.595 743.177 424.159 744.088 426.047C744.295 424.283 744.14 422.483 743.637 420.814C745.407 422.246 746.721 424.403 747.351 426.913C747.764 426.111 748.018 425.2 748.093 424.252C748.169 423.305 748.063 422.349 747.785 421.463C748.944 422.973 749.775 424.826 750.198 426.848C750.563 426.848 750.789 426.329 750.841 425.853C751.087 423.935 750.889 421.969 750.268 420.187C751.728 421.795 752.768 423.912 753.254 426.264C753.737 423.985 754.473 421.801 755.441 419.776C755.229 421.938 755.48 424.132 756.17 426.134C756.245 426.325 756.359 426.489 756.5 426.61C756.847 426.848 757.281 426.458 757.402 425.961C757.498 425.463 757.498 424.945 757.402 424.447C757.363 424.2 757.366 423.945 757.411 423.699C757.456 423.453 757.541 423.221 757.663 423.02C758.409 424.447 759.208 425.81 760.041 427.15C760.071 425.609 759.822 424.079 759.312 422.674C760.843 423.895 762.14 425.519 763.114 427.432C763.284 424.95 762.66 422.486 761.378 420.576C762.66 421.751 763.8 423.149 764.763 424.728C764.919 423.496 765.093 422.263 765.336 421.052C765.787 422.09 766.256 423.214 766.724 424.166C766.845 424.519 767.06 424.809 767.332 424.988C767.905 425.247 768.426 424.382 768.495 423.604C768.472 422.822 768.548 422.041 768.721 421.29C769.453 422.882 769.969 424.613 770.248 426.415C771.029 425.918 770.977 424.447 770.804 423.322L770.248 419.754C772.141 420.597 772.939 423.452 773.512 425.939C774.039 423.381 774.009 420.693 773.425 418.154C774.272 419.13 774.933 420.331 775.359 421.666C775.786 423.002 775.967 424.44 775.89 425.874C776.718 423.529 777.811 421.344 779.136 419.386C778.845 421.915 779.315 424.488 780.456 426.61C780.857 425.27 781.028 423.841 780.959 422.414C782.318 423.344 783.47 424.682 784.309 426.307C784.675 424.881 784.595 423.336 784.084 421.982C785.79 422.712 787.275 424.079 788.337 425.896C788.61 424.919 788.682 423.872 788.546 422.852C788.409 421.831 788.069 420.87 787.556 420.057C788.667 420.457 789.655 421.269 790.387 422.385C791.119 423.502 791.56 424.87 791.652 426.307L794.951 420.295C794.645 421.858 794.58 423.48 794.76 425.074C795.437 423.193 796.166 421.354 796.982 419.559C796.96 421.412 797.312 423.241 798.006 424.88C798.077 422.432 798.368 420.002 798.874 417.635C799.512 420.523 800.959 423.032 802.953 424.707L800.992 421.117C802.61 422.18 804.155 423.41 805.609 424.793L803.266 420.879C804.63 421.822 805.9 422.962 807.05 424.274V424.123C806.731 423.012 806.677 421.811 806.894 420.662C808.96 421.614 810.366 424.252 812.414 425.247C812.657 425.377 813.022 425.42 813.108 425.096C813.16 424.936 813.16 424.758 813.108 424.598C812.635 422.888 811.918 421.298 810.991 419.905C813.185 421.062 815.251 422.566 817.136 424.382C816.781 422.49 816.087 420.723 815.105 419.213C817.476 420.554 819.639 422.406 821.493 424.685C820.932 422.516 820.772 420.216 821.024 417.959C822.191 420.503 823.842 422.649 825.833 424.209C825.506 422.663 824.914 421.224 824.097 419.992C826.039 420.889 827.869 422.127 829.53 423.668L827.413 418.651C829.47 420.032 831.453 421.578 833.349 423.279C832.703 422.359 832.258 421.246 832.057 420.049C831.857 418.852 831.907 417.611 832.204 416.445C833.272 419.365 835.179 421.68 837.55 422.933C837.135 420.891 836.226 419.056 834.946 417.678C836.97 418.695 838.76 420.322 840.154 422.414C839.929 420.66 839.253 419.043 838.227 417.808C840.128 419.127 841.88 420.756 843.435 422.652C843.467 421.587 843.304 420.528 842.958 419.553C842.613 418.579 842.093 417.716 841.439 417.029C843.11 418.274 844.615 419.836 845.9 421.657C845.727 419.948 845.727 418.219 845.9 416.51C846.987 418.194 848.318 419.61 849.823 420.684L848.886 417.289C850.449 418.255 851.832 419.618 852.948 421.29C852.753 419.309 852.189 417.413 851.299 415.753C853.524 416.892 855.364 418.955 856.507 421.592H856.646L856.958 414.715C857.498 416.227 858.352 417.531 859.433 418.493C860.513 419.456 861.78 420.04 863.103 420.187C861.762 418.076 860.872 415.576 860.517 412.92L866.089 417.029C866.697 417.483 867.443 417.937 868.051 417.483C867.582 416.332 866.919 415.321 866.106 414.52C868.698 415.686 871.236 417.029 873.71 418.543C872.964 416.73 872.043 415.038 870.967 413.504C872.775 414.5 874.387 415.976 875.689 417.829C875.057 415.762 874.889 413.519 875.203 411.341C875.642 412.871 876.359 414.252 877.299 415.378C878.239 416.504 879.375 417.343 880.619 417.829C879.747 416.432 878.985 414.933 878.345 413.353C879.978 415.082 881.937 416.265 884.039 416.791C882.492 415.373 881.291 413.449 880.567 411.233C882.3 413.198 884.224 414.884 886.295 416.251C885.703 414.383 885.255 412.45 884.959 410.476C885.399 411.499 886.03 412.374 886.799 413.028L890.271 416.488C890.337 415.555 890.185 414.618 889.834 413.789C889.483 412.96 888.947 412.276 888.292 411.817C889.79 412.612 891.188 413.676 892.44 414.975C892.189 414.079 892.135 413.115 892.284 412.185C893.003 413.363 893.877 414.38 894.871 415.191C894.918 413.11 894.491 411.055 893.638 409.265C895.292 410.388 896.698 412 897.735 413.958C897.926 414.347 898.308 414.802 898.603 414.52C898.898 414.239 898.759 413.958 898.707 413.634C898.411 411.742 897.976 409.889 897.405 408.097C899.558 408.854 900.617 412.271 902.717 413.18C902.567 410.671 901.974 408.234 900.981 406.043C903.109 407.784 904.838 410.183 905.998 413.007C906.063 410.754 906.507 408.544 907.3 406.518C907.72 408.991 908.723 411.25 910.182 413.007C910.658 409.474 910.038 405.847 908.446 402.864C909.904 403.688 911.195 404.908 912.226 406.435C913.256 407.961 913.999 409.756 914.4 411.687C914.955 411.19 914.886 410.13 914.764 409.287C914.556 408.011 914.365 406.735 914.174 405.459C915.776 406.824 917.025 408.74 917.768 410.974C918.065 408.948 918.146 406.883 918.011 404.832C918.998 406.792 920.305 408.472 921.847 409.762C922.038 409.914 922.316 410.065 922.472 409.762C922.535 409.656 922.565 409.526 922.559 409.395C922.52 408.712 922.334 408.054 922.021 407.492L920.129 403.491L925.684 408.681C926.135 409.092 926.777 409.503 927.176 409.006C926.557 408.355 926.059 407.543 925.718 406.628C925.376 405.713 925.198 404.716 925.197 403.707C926.378 405.946 928.08 407.682 930.075 408.681C930.388 408.833 930.822 408.897 930.961 408.508C931.029 408.285 931.029 408.039 930.961 407.816C930.49 406.496 929.908 405.242 929.225 404.075C930.972 405.236 932.513 406.825 933.756 408.746H933.999C934.196 406.407 933.756 404.053 932.749 402.063C934.026 403.447 935.081 405.12 935.856 406.994C937.592 401.674 931.152 385.562 930.058 381.042C929.416 378.425 928.826 375.311 930.058 373.127C931.082 371.353 932.94 370.964 934.485 369.904C936.134 368.655 937.487 366.88 938.402 364.763C939.318 362.645 939.763 360.262 939.692 357.858C939.538 352.974 938.091 348.29 935.578 344.536C934.329 346.711 932.589 348.375 930.579 349.316C930.107 347.379 930.043 345.323 930.392 343.346C930.742 341.369 931.494 339.537 932.575 338.026C932.946 337.669 933.273 337.246 933.547 336.772C933.786 336.183 933.939 335.546 933.999 334.891C934.751 329.72 937.1 325.123 940.543 322.088C946.185 316.702 953.545 315.794 960.472 314.432C965.265 313.785 970.005 312.62 974.637 310.95C983.785 307.1 993.09 306.516 998.94 304.462C1000.01 304.173 1001.02 303.606 1001.91 302.796C1002.6 302.041 1003.19 301.15 1003.64 300.158C1004.75 298.101 1005.6 295.848 1006.16 293.475C1007.06 289.15 1006.84 282.078 1004.89 278.207C1004.03 276.455 1003.51 276.606 1001.84 276.433C1000.87 276.198 999.973 275.651 999.229 274.846C998.486 274.041 997.925 273.008 997.603 271.849C996.805 269.556 996.492 267.026 995.763 264.712C999.721 263.479 1003.44 269.253 1007.31 269.037C1006.01 266.51 1004.13 264.539 1001.91 263.392C995.329 260.148 987.118 258.462 980.765 254.526C977.2 252.206 974.279 248.604 972.38 244.188C971.701 244.022 971.028 243.813 970.366 243.561C967.587 242.34 965.114 240.229 963.197 237.44C961.201 234.715 957.816 229.287 957.989 228.4C958.163 227.514 965.141 239.43 971.009 240.901C967.381 230.801 967.381 219.663 968.266 219.988C968.735 220.161 969.915 226.086 970.349 229.309C971.429 237.047 974.806 243.995 979.81 248.773C980.452 249.378 981.112 249.919 981.789 250.438C979.451 246.621 977.972 242.097 977.501 237.332C976.772 230.844 978.629 217.522 979.237 217.868C979.845 218.214 979.567 224.356 979.549 229.374C982.171 225.286 983.993 216.614 984.479 216.808C984.965 217.003 984.861 219.793 984.618 221.264C984.455 222.06 984.246 222.84 983.993 223.599C982.812 226.965 981.333 230.157 979.584 233.115C979.592 235.133 979.749 237.145 980.053 239.127C980.516 241.469 981.174 243.745 982.014 245.918C983.064 248.732 984.564 251.249 986.424 253.314C989.714 254.855 993.123 255.971 996.596 256.645C994.86 253.314 993.767 249.443 994.86 247.194C995.346 246.264 995.207 251.995 1000.17 257.467C1001.46 257.785 1002.72 258.271 1003.92 258.916C1006.79 260.751 1009.19 263.535 1010.87 266.961C1011.58 266.123 1012.34 265.343 1013.14 264.625C1014.43 263.666 1015.88 263.089 1017.38 262.938C1017.19 260.378 1017.35 257.797 1017.86 255.304C1018.18 253.904 1018.61 252.549 1019.15 251.26C1019.32 243.128 1016.7 238.824 1017.41 239.17C1019.01 239.971 1020.2 243.755 1020.74 247.821C1022.3 244.468 1023.58 240.933 1024.58 237.267C1024.63 234.165 1024.3 231.072 1023.59 228.098C1023.06 225.783 1022.39 223.52 1021.59 221.328C1020.87 219.601 1020.05 217.938 1019.15 216.354C1016.84 215.424 1014.64 214.13 1012.6 212.505C1012.11 212.125 1011.65 211.69 1011.23 211.207C1010.43 210.277 1009.13 208.266 1009.3 207.682C1009.48 207.098 1014.29 212.353 1017.5 213.456C1015.26 209.607 1012.29 204.806 1012.51 204.373C1012.74 203.94 1019.6 212.44 1022.15 218.041C1024.05 222.185 1025.27 226.757 1025.74 231.493C1025.86 230.563 1025.97 229.633 1026.04 228.66C1026.52 220.893 1025.22 213.115 1022.29 206.233C1021.03 203.436 1020.01 200.487 1019.23 197.431C1019.55 196.501 1024.53 204.719 1027.37 215.057C1029.44 208.936 1027.88 195.333 1028.36 195.809C1028.85 196.285 1029.54 203.14 1029.72 206.795C1029.95 210.301 1029.6 213.83 1028.68 217.154C1028.53 217.597 1028.37 218.03 1028.19 218.452C1029.41 223.497 1029.6 228.839 1028.76 234.002C1027.18 242.004 1023.56 249.768 1021.63 257.445C1021.19 259.172 1021.01 260.98 1021.07 262.787H1021.61C1022.24 262.831 1022.87 262.659 1023.43 262.29C1023.86 261.865 1024.23 261.353 1024.53 260.776C1025.34 259.443 1026.37 258.333 1027.54 257.515C1028.72 256.696 1030.01 256.187 1031.35 256.018C1031.33 261.044 1029.88 265.9 1027.27 269.729C1026.85 270.241 1026.51 270.861 1026.3 271.546C1026.14 272.531 1026.24 273.554 1026.58 274.465C1027.8 279.533 1029.43 284.432 1031.45 289.085C1031.95 289.929 1032.25 290.922 1032.34 291.961C1032.31 292.616 1032.13 293.246 1031.82 293.778C1031.51 294.31 1031.09 294.723 1030.6 294.968C1029.64 295.421 1028.6 295.511 1027.6 295.227C1027.15 295.084 1026.69 295.047 1026.23 295.119C1025.1 295.422 1024.49 297.065 1024.28 298.514C1022.93 304.713 1022.09 311.069 1021.78 317.481C1021.78 321.486 1021.37 325.475 1020.57 329.354C1018.83 336.231 1014.13 340.838 1010.48 346.05L1010.33 346.288C1010.33 347.672 1010.5 349.056 1010.64 350.397C1010.65 350.599 1010.65 350.801 1010.64 351.003C1011.42 357.56 1012.49 364.057 1013.85 370.467C1014.67 374.359 1015.59 378.209 1016.56 382.059C1017.59 386.433 1019.48 390.421 1022.04 393.672C1021.75 391.639 1021.44 389.606 1021.14 387.573C1022.45 389.565 1023.9 391.397 1025.48 393.045C1025.03 390.465 1024.24 387.995 1023.14 385.735C1025.03 387.615 1026.77 389.716 1028.35 392.007C1027.26 389.687 1026.79 387.002 1026.99 384.329C1028.24 387.544 1030.15 390.285 1032.53 392.266C1030.89 390.272 1029.82 387.669 1029.47 384.848C1031.04 388.326 1033.58 390.966 1036.61 392.266C1034.69 390.35 1033.33 387.697 1032.74 384.719C1033.92 387.188 1035.68 389.139 1037.79 390.298C1036.56 388.236 1035.92 385.728 1035.95 383.162C1037.69 386.6 1040.19 390.515 1043.29 389.65C1042.45 387.171 1041.39 384.815 1040.13 382.621C1042.65 384.033 1044.99 385.899 1047.08 388.157C1046.06 385.464 1044.64 383.03 1042.91 380.977C1045.29 382.173 1047.33 384.22 1048.78 386.86L1049.33 379.247C1049.68 381.746 1050.76 383.993 1052.37 385.54C1052.03 383.809 1051.44 382.167 1050.64 380.696C1052.57 381.776 1054.34 383.285 1055.84 385.151C1054.66 383.223 1053.59 381.184 1052.65 379.052C1054.96 380.129 1056.99 381.959 1058.53 384.351C1057.67 381.904 1056.92 379.39 1056.31 376.825C1058.31 378.336 1059.95 380.477 1061.07 383.032C1061.62 380.374 1062.37 377.783 1063.29 375.289C1063.33 378.011 1063.93 380.675 1065.03 383.032C1065.49 379.268 1065.12 375.419 1063.97 371.894C1066.71 374.057 1068.1 378.079 1069.31 381.907C1069.82 379.066 1069.89 376.13 1069.52 373.257C1070.89 375.337 1071.94 377.712 1072.61 380.264C1074.09 377.769 1074.81 374.705 1074.64 371.613C1075.44 373.845 1075.89 376.244 1075.98 378.685C1076.94 376.605 1077.26 374.16 1076.88 371.808C1077.58 373.802 1078.03 375.917 1078.22 378.079C1078.92 376.991 1079.41 375.727 1079.68 374.375C1079.94 373.023 1079.96 371.615 1079.75 370.25C1080.82 371.921 1081.61 373.84 1082.07 375.895C1083.65 374.489 1084.99 372.37 1086.45 370.769C1088.18 368.888 1088.18 367.482 1088.08 364.541C1088.08 363.265 1087.98 361.967 1087.91 360.67C1086.9 362.832 1084.94 367.158 1083.74 367.158C1082.94 367.158 1082.39 366.012 1082.37 364.995C1082.43 363.966 1082.57 362.946 1082.77 361.946C1082.81 360.639 1082.64 359.335 1082.26 358.116C1081.88 356.898 1081.29 355.794 1080.55 354.874C1079.16 352.949 1077.49 351.392 1076.22 349.337C1073.01 344.125 1073.01 337.118 1072.07 330.89C1070.57 322.833 1068.28 315.034 1065.27 307.663C1063 301.446 1062.4 294.488 1063.53 287.809C1064.04 284.803 1064.89 281.905 1065.43 278.921C1065.91 275.908 1066.24 272.86 1066.42 269.794C1066.85 263.782 1067.02 257.467 1067.47 251.26C1067.27 249.99 1067.02 248.734 1066.71 247.497C1066.21 245.808 1065.8 244.081 1065.48 242.328C1065.18 239.978 1065.18 237.585 1065.48 235.234C1065.7 232.808 1066.04 230.402 1066.52 228.033C1064.65 227.422 1062.92 226.291 1061.45 224.724C1060.33 223.617 1059.42 222.208 1058.79 220.601C1058.17 218.994 1057.84 217.232 1057.84 215.446C1060.72 218.43 1064.7 218.625 1068.26 220.009C1067.98 216.555 1066.87 213.287 1065.06 210.645C1059.85 203.205 1052.46 196.263 1047.7 188.326C1045.11 183.766 1043.63 178.362 1043.47 172.776C1042.86 172.189 1042.28 171.553 1041.73 170.873C1039.47 167.884 1037.86 164.231 1037.04 160.254C1036.12 156.297 1034.89 148.814 1035.46 148.079C1036.04 147.343 1038.26 163.498 1043.43 168.732C1043.74 156.47 1048.01 145.548 1048.74 146.435C1049.13 146.932 1048.03 153.485 1047.23 156.924C1045.32 165.321 1045.97 174.305 1049.06 182.141C1049.45 183.137 1049.88 184.104 1050.36 185.039C1049.52 179.83 1049.79 174.437 1051.16 169.403C1052.89 162.525 1059.84 150.739 1060.32 151.344C1060.81 151.95 1058.13 157.94 1056.21 162.828C1060.34 160.492 1065.46 153.182 1065.86 153.702C1066.26 154.221 1065.1 156.859 1064.28 158.135C1063.82 158.822 1063.32 159.459 1062.77 160.038C1060.33 162.572 1057.66 164.749 1054.82 166.526C1054.05 168.512 1053.43 170.582 1052.96 172.711C1052.53 175.315 1052.3 177.967 1052.3 180.627C1052.25 184.091 1052.76 187.534 1053.8 190.748C1056.42 194.362 1059.33 197.644 1062.47 200.545C1061.95 196.22 1062.47 191.678 1064.44 190.208C1065.27 189.602 1062.93 195.138 1065.72 203.703C1066.83 204.805 1067.84 206.052 1068.74 207.422C1070.61 210.537 1071.84 214.176 1072.32 218.02C1074.93 216.797 1077.81 216.797 1080.42 218.02H1080.62C1081.16 214.16 1082.44 210.523 1084.36 207.422C1085.29 206.009 1086.33 204.725 1087.47 203.594C1090.27 194.944 1087.92 189.494 1088.76 190.099C1090.75 191.57 1091.24 196.025 1090.74 200.437C1093.88 197.531 1096.78 194.25 1099.42 190.64C1100.45 187.423 1100.96 183.984 1100.93 180.519C1100.91 177.859 1100.68 175.208 1100.25 172.603C1099.78 170.474 1099.16 168.403 1098.39 166.418C1095.55 164.636 1092.89 162.46 1090.44 159.93C1089.89 159.351 1089.39 158.714 1088.93 158.027C1088.11 156.751 1086.93 154.134 1087.37 153.593C1087.8 153.053 1092.87 160.384 1097 162.72C1095.08 157.832 1092.51 151.733 1092.91 151.236C1093.3 150.739 1100.25 162.417 1102.05 169.294C1103.41 174.329 1103.69 179.719 1102.87 184.931C1103.32 184.001 1103.77 183.027 1104.17 182.033C1107.23 174.183 1107.85 165.2 1105.91 156.816C1105.11 153.377 1104.02 146.824 1104.4 146.327C1105.14 145.44 1109.4 156.362 1109.71 168.624C1114.92 163.39 1117.14 147.257 1117.68 147.97C1118.22 148.684 1117.02 156.189 1116.1 160.146C1115.28 164.122 1113.67 167.776 1111.41 170.765C1110.87 171.455 1110.29 172.091 1109.67 172.668C1109.51 178.254 1108.03 183.658 1105.44 188.218C1100.7 196.155 1093.29 203.097 1088.08 210.537C1086.6 212.652 1085.59 215.219 1085.16 217.976C1086.57 217.5 1088.01 217.219 1089.42 216.722C1090.48 216.482 1091.48 215.975 1092.38 215.231C1093.28 214.487 1094.04 213.522 1094.62 212.397C1094.83 214.493 1094.66 216.62 1094.12 218.624C1093.59 220.628 1092.7 222.46 1091.53 223.989C1090.36 225.544 1088.96 226.82 1087.42 227.752C1087.61 228.974 1087.73 230.209 1087.8 231.45C1088.36 239.865 1089.66 248.178 1091.69 256.234C1092.06 257.972 1092.56 259.66 1093.2 261.273C1096.31 268.496 1103.62 270.616 1109.26 273.081L1123.35 279.331C1130.04 282.294 1137.24 285.819 1141.01 293.497C1142.59 296.719 1143.59 300.699 1146.09 302.71C1144.9 303.546 1143.55 303.958 1142.19 303.901C1140.82 303.843 1139.49 303.319 1138.35 302.386C1139.34 303.207 1137.19 311.599 1136.98 312.896C1136.3 316.434 1136.08 320.084 1136.32 323.71C1136.64 326.262 1137.33 328.72 1138.37 330.955C1140.08 334.854 1142.4 338.288 1145.19 341.054C1146.42 341.968 1147.38 343.347 1147.93 344.99C1148.09 345.864 1148.11 346.764 1148.02 347.65C1147.81 350.916 1147.52 354.138 1147.12 357.447C1146.82 358.746 1146.72 360.105 1146.84 361.448C1147.07 362.703 1148.58 365.276 1148.58 362.486C1148.58 361.751 1148.32 360.994 1148.58 360.324L1150.31 364.649V357.664C1150.44 359.026 1150.83 360.329 1151.46 361.459C1152.08 362.59 1152.91 363.514 1153.89 364.152C1152.99 362.284 1152.59 360.112 1152.74 357.945C1153.18 360.29 1154.3 362.345 1155.9 363.698C1154.86 361.459 1154.51 358.814 1154.95 356.279C1156.44 358.907 1158.26 361.215 1160.35 363.114C1159.77 360.951 1159.24 358.68 1158.73 356.453C1160.7 358.228 1162.4 360.425 1163.75 362.941C1163.89 360.364 1163.68 357.777 1163.14 355.285C1165.24 357.332 1166.83 360.086 1167.72 363.222C1168.82 360.864 1169.98 358.529 1171.06 356.215C1170.24 356.215 1169.41 356.215 1168.57 356.02C1175.76 346.072 1192.04 314.626 1195.36 305.63C1194.29 306.883 1192.9 307.646 1191.44 307.792C1193.73 304.048 1195.62 299.947 1197.06 295.595C1195.54 297.123 1193.67 298.003 1191.71 298.103C1198.09 285.77 1203.33 272.581 1207.34 258.786C1205.73 260.557 1203.67 261.561 1201.52 261.619L1207.44 248.513C1205.95 250.469 1204.11 251.952 1202.06 252.839C1208.41 242.977 1210.34 237.851 1213.73 226.649L1210.65 228.271C1211.93 225.706 1212.83 222.879 1213.31 219.923L1210.25 220.982C1218.6 209.153 1219.04 195.614 1222.04 179.437C1221.54 180.411 1220.86 181.214 1220.05 181.773C1222.59 176.517 1224.13 170.593 1224.52 164.472C1224.99 171.579 1226.33 178.554 1228.52 185.147C1227.93 184.52 1227.84 185.147 1227.23 184.022C1228.16 189.445 1229.63 194.699 1231.62 199.658C1231.17 199.658 1230.95 199.334 1230.2 198.534C1230.94 206.005 1232.58 213.295 1235.06 220.161C1233.86 220.161 1233.46 219.144 1232.37 217.998C1233.21 220.552 1234.52 222.825 1236.19 224.637C1235.42 224.437 1234.7 223.99 1234.11 223.34C1234.11 225.502 1240.03 245.075 1245.58 260.235C1244.75 260.251 1243.94 259.948 1243.26 259.367C1242.57 258.787 1242.05 257.957 1241.76 256.991C1243.08 263.811 1245.35 270.289 1248.46 276.131C1246.04 275.323 1243.86 273.628 1242.21 271.265C1243.82 278.62 1246.03 285.751 1248.81 292.545C1251.43 285.603 1253.5 279.742 1254.49 276.304C1253.46 277.928 1251.96 278.991 1250.32 279.267C1252.79 273.932 1254.77 268.265 1256.22 262.376C1254.78 264.38 1252.77 265.612 1250.61 265.815C1256.99 250.957 1263.46 228.811 1267.31 212.029C1265.11 214.408 1263.84 215.792 1261.12 215.9L1267.51 198.318C1266.03 200.857 1264.06 202.882 1261.78 204.2C1268.53 190.705 1270.58 183.698 1274.19 168.343L1270.91 170.505C1272.3 166.897 1273.26 163.048 1273.74 159.087L1270.49 160.536C1279.36 144.315 1279.83 125.803 1283.04 103.636C1282.55 104.907 1281.81 106.012 1280.91 106.858C1283.68 99.3732 1285.3 91.3012 1285.66 83.0684C1285.66 88.7995 1287.97 105.582 1289.92 111.356C1289.29 110.513 1289.2 111.356 1288.56 109.842C1289.52 117.161 1291.09 124.336 1293.23 131.253C1292.75 131.253 1292.5 130.777 1291.72 129.696C1292.49 139.777 1294.24 149.705 1296.93 159.26C1295.64 159.26 1295.19 157.875 1294.07 156.297C1294.89 159.652 1296.28 162.754 1298.13 165.402C1297.27 165.082 1296.51 164.467 1295.92 163.628C1295.92 166.569 1302.21 193.365 1308.07 214.127C1307.1 214.041 1306.17 213.559 1305.44 212.754C1304.7 211.949 1304.2 210.866 1304.01 209.672C1305.36 218.791 1307.75 227.621 1311.13 235.883C1308.39 234.618 1306.06 232.28 1304.48 229.222C1306 238.185 1308.07 246.991 1310.66 255.564C1312.6 250.265 1314.13 245.832 1314.97 242.847C1313.68 244.884 1311.82 246.218 1309.76 246.567C1312.89 239.935 1315.41 232.883 1317.27 225.546C1315.44 228.085 1312.88 229.636 1310.14 229.871C1318.16 211.164 1326.3 183.309 1331.14 162.179C1328.38 165.185 1326.87 166.937 1323.35 167.067C1326.02 159.699 1328.71 152.325 1331.4 144.943C1329.55 148.146 1327.05 150.694 1324.17 152.339C1332.69 135.362 1335.26 126.538 1339.79 107.247L1335.62 110.102C1337.37 105.558 1338.57 100.719 1339.18 95.7417L1335.09 97.5368C1346.26 77.1643 1346.84 53.8723 1350.88 25.9738C1350.27 27.5874 1349.36 28.9961 1348.23 30.0829C1351.92 21.2591 1353.43 10.316 1354.22 0.216281C1354.22 7.39637 1357.13 28.5258 1359.56 35.7924C1358.78 34.7326 1358.66 35.7923 1357.83 33.8675C1359.03 43.0786 1360.99 52.1094 1363.69 60.8145C1363.09 60.8145 1362.79 60.2089 1361.8 58.8681C1362.75 71.5424 1364.93 84.0263 1368.29 96.0445C1366.68 96.0445 1366.14 94.3144 1364.7 92.3247C1365.74 96.5486 1367.48 100.454 1369.8 103.787C1368.72 103.417 1367.75 102.666 1367.01 101.624C1367.15 105.344 1374.92 139.06 1382.37 165.164C1381.15 165.055 1379.98 164.451 1379.06 163.444C1378.14 162.437 1377.5 161.082 1377.25 159.584C1378.94 171.047 1381.95 182.143 1386.21 192.522C1382.77 190.939 1379.84 188.01 1377.86 184.174C1382.09 209.78 1389.65 230.498 1398.38 255.066C1394.36 253.155 1390.72 250.207 1387.68 246.415C1389.12 248.167 1390.01 253.877 1390.83 256.364C1391.98 259.853 1393.2 263.299 1394.47 266.701C1396.92 273.362 1399.56 279.915 1402.23 286.425C1407.44 299.142 1411.95 311.88 1417.51 324.423C1415.83 322.681 1414.01 321.159 1412.07 319.882C1413.46 325.437 1415.2 330.847 1417.28 336.058C1428.39 336.556 1439.85 337.248 1452 338.221C1447.99 404.01 1445.39 444.582 1441.39 510.392L1373.8 523.368C1027.91 553.646 141.616 541.167 46.6436 536.193C-6.54529 533.338 -67.9279 519.086 -82.7007 476.957C-88.1342 461.148 -85.9294 443.954 -82.7007 427.388ZM1086.55 326.37C1085.93 323.737 1085.02 321.221 1083.86 318.887C1083.6 318.856 1083.34 318.856 1083.08 318.887C1081.99 319.168 1081.85 319.968 1081.54 321.309C1080.93 324.512 1080.62 327.792 1080.62 331.084C1080.53 334.285 1080.42 337.572 1080.32 340.708C1080.26 341.683 1080.29 342.664 1080.42 343.628C1080.65 344.721 1081.02 345.759 1081.52 346.699C1082.74 349.21 1084.21 351.52 1085.89 353.576C1086.62 354.484 1087.4 355.35 1088.08 356.323C1087.94 351.003 1088.2 333.463 1086.55 326.37ZM1381.66 330.911V331.344C1381.85 330.738 1382.06 330.133 1382.27 329.527L1381.43 329.008C1381.53 329.609 1381.6 330.215 1381.64 330.825L1381.66 330.911ZM1375.41 332.252C1375.62 332.037 1375.82 331.806 1376 331.56L1375.55 331.236C1375.55 331.365 1375.38 331.495 1375.29 331.625C1375.32 331.808 1375.35 331.988 1375.39 332.166L1375.41 332.252ZM1183.31 354.052L1183.42 353.792H1183.1L1183.31 354.052ZM1175.14 358.377C1175.37 358.677 1175.67 358.894 1176 359.004C1176.32 359.114 1176.67 359.114 1176.99 359.004C1177.35 358.464 1177.57 357.814 1177.65 357.125C1177.73 356.436 1177.66 355.732 1177.45 355.09L1174.84 355.544C1174.84 355.89 1174.84 356.258 1174.84 356.582C1174.77 357.184 1174.88 357.798 1175.14 358.312V358.377ZM1122.09 369.385C1122.09 369.666 1122.19 369.969 1122.26 370.272L1124 364C1124.73 365.247 1125.31 366.615 1125.73 368.066L1125 359.156C1125.06 360.539 1125.39 361.883 1125.97 363.065C1126.55 364.248 1127.36 365.231 1128.32 365.925C1127.19 364.031 1126.35 361.889 1125.85 359.61C1127.79 362.242 1129.98 364.567 1132.38 366.531C1131.68 365.563 1131.14 364.428 1130.8 363.194C1130.46 361.96 1130.32 360.652 1130.4 359.35C1131.29 361.8 1132.67 363.923 1134.41 365.514C1133.75 363.578 1133.55 361.448 1133.82 359.372L1135.82 363.698C1135.82 362.508 1135.82 361.318 1135.82 360.129C1136.43 361.124 1137.05 362.119 1137.68 363.092L1138.01 359.61C1138.21 360.754 1138.53 361.865 1138.94 362.919C1138.94 363.114 1139.15 363.351 1139.32 363.395C1139.48 363.391 1139.62 363.313 1139.72 363.178C1142.94 360.172 1142.61 354.895 1142.47 350.202C1142.33 349.096 1141.98 348.047 1141.45 347.14C1140.92 346.234 1140.23 345.497 1139.43 344.99C1137.72 343.517 1136.13 341.844 1134.67 339.994C1133.22 337.949 1131.67 336.007 1130.04 334.177C1128.62 332.85 1127.13 331.629 1125.59 330.522L1125.37 330.327C1126.21 333.305 1127.34 336.139 1128.75 338.762C1129.31 339.58 1129.66 340.59 1129.76 341.66C1129.66 342.702 1129.31 343.683 1128.75 344.471C1127.03 347.599 1125.64 350.995 1124.62 354.571C1123.11 359.286 1121.27 364.13 1122.09 369.32V369.385ZM1104.26 372.002V372.197C1104.31 369.836 1104.14 367.477 1103.74 365.168C1105 367.111 1105.98 369.304 1106.65 371.656C1106.92 371.053 1107.06 370.376 1107.06 369.688C1107.06 369 1106.92 368.323 1106.65 367.72C1106.13 366.497 1105.82 365.147 1105.75 363.762C1107.46 365.818 1108.76 368.343 1109.55 371.137C1109.85 369.02 1110.65 367.065 1111.86 365.536C1111.4 367.401 1111.49 369.409 1112.1 371.202C1112.62 369.298 1113.69 367.707 1115.11 366.747C1117.92 364.887 1117.92 361.146 1118.48 357.382C1118.86 354.809 1119.5 352.322 1120.07 349.835C1120.77 347.829 1120.81 345.564 1120.19 343.52C1119.64 342.477 1118.9 341.617 1118.02 341.011C1112.82 336.577 1107.45 331.733 1104.35 324.704C1103.81 323.489 1103.35 322.223 1102.97 320.92C1101.72 321.448 1100.59 322.39 1099.73 323.645C1099.12 324.778 1098.68 326.038 1098.43 327.364C1096.59 335.224 1095.28 343.261 1094.52 351.392C1093.86 358.529 1092.66 364.627 1094.07 371.937C1094.17 372.435 1094.4 373.062 1094.8 373.019C1095.2 372.975 1095.35 372.37 1095.41 371.851C1095.63 369.642 1095.7 367.413 1095.61 365.19C1097.09 367.169 1098.13 369.59 1098.63 372.218L1097.96 364.736C1099.2 366.898 1100.09 369.335 1100.6 371.916C1101.06 368.603 1101.8 365.357 1102.78 362.227C1102.47 365.575 1102.98 368.965 1104.26 371.937V372.002ZM992.135 364.022C991.614 359.329 989.93 354.16 986.441 352.776C984.58 352.261 982.645 352.343 980.817 353.014C972.935 355.004 969.082 356.993 962.641 359.004C961.612 363.379 959.748 367.379 957.208 370.661C955.663 372.824 954.101 375.138 952.486 377.279C951.924 377.894 951.514 378.697 951.306 379.593C951.221 380.136 951.221 380.694 951.306 381.237C952.035 385.843 954.778 389.066 956.514 393.045C958.25 397.024 961.93 399.901 963.7 404.096C962.886 402.167 962.329 400.085 962.051 397.933C963.533 399.945 964.869 402.116 966.044 404.421C965.714 402.15 965.402 399.879 965.072 397.608C966.671 399.529 967.972 401.802 968.908 404.313C968.8 401.207 968.344 398.135 967.554 395.186C969.211 396.75 970.583 398.732 971.581 401.004L970.436 394.991C972.22 397.094 973.705 399.559 974.828 402.28C973.866 400.08 973.387 397.603 973.439 395.1C974.314 398.21 976.117 400.781 978.473 402.28C976.685 400.058 975.475 397.217 975.001 394.126C976.654 397.569 979.105 400.306 982.032 401.977L978.23 393.132C980.194 395.007 982.018 397.099 983.681 399.382C982.915 397.455 982.237 395.477 981.65 393.456L985.868 400.268C985.889 397.919 985.625 395.578 985.087 393.326C985.969 395.55 987.21 397.523 988.732 399.122C988.969 397.981 989.01 396.791 988.855 395.629C988.699 394.467 988.35 393.358 987.83 392.375C989.27 393.738 990.332 395.629 990.868 397.781C991.979 392.396 991.788 386.557 992.1 381.042C992.58 375.385 992.592 369.682 992.135 364.022ZM1009.06 374.835C1008.12 372.197 1007.13 369.58 1006.09 366.985C1005.71 366.055 1002.62 360.043 1002.79 359.372C1002.25 360.641 1001.79 361.956 1001.4 363.308C998.624 372.834 997.254 382.91 997.36 393.045C997.353 394.016 997.5 394.979 997.794 395.878C997.982 396.35 998.259 396.76 998.6 397.072C998.941 397.384 999.337 397.59 999.756 397.673C999.068 395.622 998.904 393.356 999.287 391.185C1000.04 393.438 1001.03 395.555 1002.24 397.479C1002.05 394.593 1002.14 391.69 1002.48 388.828C1002.83 391.701 1003.82 394.393 1005.35 396.592C1005.26 393.831 1004.88 391.098 1004.22 388.46C1005.8 390.521 1006.99 393.006 1007.69 395.727C1007.46 393.564 1007.22 391.401 1006.99 389.087C1008.48 390.814 1009.35 393.201 1009.42 395.727C1010.24 394.063 1010.78 392.208 1011 390.277C1011.49 392.003 1011.68 393.838 1011.56 395.662C1015.08 389.325 1011.14 380.696 1009.06 374.749V374.835ZM936.811 386.925C937.262 391.22 938.006 395.459 939.033 399.598C939.536 401.588 939.432 402.777 940.925 403.923L940.717 403.253C941.388 403.726 942.037 404.246 942.661 404.81C943.325 405.073 943.975 405.391 944.605 405.762C944.321 404.502 943.869 403.31 943.268 402.236C945.096 403.583 946.606 405.508 947.643 407.816C947.296 405.326 947.349 402.775 947.799 400.312C948.046 402.04 948.702 403.636 949.682 404.896C950.663 406.156 951.923 407.023 953.302 407.384C952.677 405.697 950.941 404.896 950.594 403.058C952.49 404.51 954.605 405.459 956.809 405.848C955.983 404.241 954.93 402.834 953.701 401.696C955.343 402.455 956.904 403.457 958.354 404.68C956.028 401.41 953.904 397.926 952 394.256C950.133 391.068 947.972 388.164 945.56 385.605C945.064 385.176 944.645 384.624 944.329 383.984C944.012 383.344 943.805 382.63 943.72 381.886C943.769 381.127 943.947 380.39 944.241 379.723C944.935 377.863 945.647 375.96 946.306 374.013C944.473 375.894 942.516 377.58 940.456 379.052C938.956 379.844 937.727 381.268 936.984 383.075C936.68 384.322 936.62 385.643 936.811 386.925ZM255.024 299.682C255.129 299.293 255.215 298.882 255.302 298.493L254.677 297.995L254.469 298.212L255.024 299.682ZM194.093 254.634C194.232 253.812 194.354 252.99 194.475 252.168L194.232 251.974C194.055 252.366 193.839 252.729 193.59 253.055L194.093 254.634ZM111.602 245.399C111.845 244.729 112.053 244.058 112.296 243.388C111.477 242.812 110.733 242.083 110.092 241.225C110.508 242.501 111.012 243.885 111.619 245.442L111.602 245.399Z" fill="url(#paint0_linear_63_3115)" fill-opacity="0.5"/>
<defs>
<linearGradient id="paint0_linear_63_3115" x1="683.035" y1="542.919" x2="683.035" y2="0.0649073" gradientUnits="userSpaceOnUse">
<stop offset="0.05" stop-color="#063347"/>
<stop offset="0.39" stop-color="#0B414E"/>
<stop offset="0.99" stop-color="#196461"/>
</linearGradient>
</defs>
</svg>
