<svg width="414" height="414" viewBox="0 0 414 414" fill="none" xmlns="http://www.w3.org/2000/svg">
<path d="M339.008 54.0518C333.436 58.1172 324.41 65.3871 321.405 71.4812C310.061 78.3536 301.342 92.2888 290.073 99.3599C288.682 103.334 290.032 107.83 284.443 105.636C286.339 107.565 277.413 111.581 278.109 112.608C273.431 113.9 272.801 118.412 269.481 120.101C271.452 116.069 268.562 121.12 268.073 121.492C266.964 122.329 259.793 127.578 262.261 127.769C256.266 131.114 251 137.108 246.065 141.886C242.447 143.459 242.265 146.448 242.72 149.727C242.67 149.959 241.743 154.811 241.793 152.592C242.289 150.216 241.677 147.533 240.956 145.894C238.373 149.247 234.457 152.36 231.799 155.473C231.608 158.28 226.367 167.951 229.994 159.903C230.714 156.889 229.083 159.854 229.77 156.956C225.895 159.746 221.697 164.838 218.153 167.935C210.726 173.4 204.839 181.498 198.521 187.186C191.856 192.626 187.376 195.946 180.57 201.825C174.476 205.253 172.671 210.966 168.25 210.883C169.152 213.235 167.745 215.098 166.006 216.688C167.107 214.154 168.25 213.533 165.451 215.901C165.675 214.154 168.473 211.686 165.426 214.369C158.107 218.675 158.355 229.828 149.587 227.609C147.748 235.665 145.885 228.379 143.6 235.972C142.226 237.114 139.468 236.452 139.725 238.762C136.604 241.155 131.188 245.328 129.516 248.872C126.038 249.625 124.2 255.661 122.478 256.539C117.286 252.979 118.47 264.571 115.299 266.707C114.016 258.932 111.176 266.682 108.046 268.388C102.854 273.886 100.478 276.378 95.3691 279.541C85.7477 292.151 77.1945 296.556 66.8528 307.768C67.7636 307.776 75.0831 304.505 78.9499 303.661C85.0771 300.97 90.2521 295.745 95.5016 292.507C97.8945 293.998 100.064 289.212 100.784 288.326C105.214 288.351 108.162 281.636 111.35 279.268C118.065 274.54 119.108 278.837 124.374 271.948C134.732 261.043 147.21 250.925 158.877 241.287C158.695 239.507 167.861 234.97 168.73 234.316C171.015 231.293 177.755 221.771 181.489 219.975C181.026 224.603 186.664 217.987 189.852 215.147C202.189 208.283 216.191 192.816 226.466 183.435C245.37 171.446 258.667 151.648 273.994 133.954C284.36 127.52 294.338 115.713 300.746 104.684C307.95 97.0001 303.512 106 307.784 100.155C315.104 83.2719 331.117 69.2042 339.008 54.0518Z" fill="white"/>
<path d="M337.874 162.917C326.894 171.197 318.184 183.245 307.089 191.417C306.211 193.918 307.064 196.741 303.545 195.358C303.305 198.14 296.291 200.906 295.571 203.249C280.543 215.768 258.179 239.449 239.54 254.759C235.326 258.419 231.443 260.439 229.902 264.24C229.737 264.223 228.586 265.805 228.694 264.844C228.694 263.751 230.689 261.996 228.694 263.751C226.698 265.506 227.584 264.844 226.698 265.506C223.982 268.239 223.055 273.629 218.724 272.081C218.021 274.242 218.211 274.73 215.843 275.144C215.47 276.776 214.526 278.258 212.746 277.993C211.968 280.75 207.066 282.563 206.106 285.445C203.92 285.917 202.761 289.709 201.676 290.264C200.359 288.368 199.366 291.257 198.794 292.019C188.801 301.243 179.411 310.732 168.233 320.734C163.414 324.593 175.635 320.163 177.358 318.788C180.454 315.865 183.667 314.317 187.103 312.653C187.699 309.664 189.264 311.452 190.647 309.581C193.843 304.323 199.134 303.727 203.05 300.374C211.612 292.118 220.836 283.11 230.954 276.701C235.5 268.926 240.575 267.436 247.564 262.451C256.349 255.529 265.871 246.479 273.919 239.217C284.186 230.962 293.178 216.953 304.48 207.215C309.44 202.777 312.313 197.627 316.395 192.651C319.194 192.411 320.486 187.633 322.2 185.29C326.952 177.548 334.545 171.139 337.874 162.917Z" fill="white"/>
<path d="M358.002 91.6843C352.513 96.4784 346.104 104.328 340.002 108.799C330.405 114.082 321.893 120.639 315.327 129.011C302.17 139.642 312.504 134.98 306.733 146.771C306.799 140.652 307.329 136.388 301.955 144.171C298.155 148.013 296.341 150.986 293.634 154.869C285.097 158.073 282.389 165.302 275.202 170.618C266.889 178.914 257.061 186.167 252.018 196.476L251.149 199.076C249.998 197.014 250.114 193.677 248.152 197.37C242.364 206.246 228.818 210.047 225.266 219.958C225.075 221.117 221.217 227.278 223.08 222.864C221.846 224.595 222.177 222.094 222.6 221.738C218.426 224.073 213.806 229.157 210.411 232.436C201.924 241.519 196.89 238.795 187.824 250.867C183.965 250.197 185.555 255.612 182.119 257.326C183.22 254.817 182.293 256.316 181.365 256.928C183.857 251.074 176.538 260.795 174.741 262.749C166.304 269.009 156.492 274.929 150.067 283.855C149.429 283.921 147.947 287.225 148.469 284.683C147.359 286.927 148.046 284.517 147.98 283.557C147.964 284.675 143.435 288.831 142.929 289.502C138.947 292.996 131.975 296.258 128.067 299.901C125.508 300.531 123.182 308.347 121.228 305.25C111.871 312.131 102.44 319.442 95.3691 329.031L97.4971 327.904C90.633 331.672 105.239 324.882 105.371 325.106C112.012 319.765 124.896 314.921 131.826 309.059C134.219 303.462 139.791 301.466 144.014 298.063C150.373 293.65 160.11 288.442 163.381 281.271C163.191 282.936 163.124 282.613 163.928 281.909C162.719 285.585 165.807 281.892 167.505 280.816C185.199 268.272 203.473 252.465 220.414 238.903C227.866 234.042 238.315 227.973 242.405 219.585C267.386 205.998 301.682 167.604 325.04 142.01C329.701 137.531 334.703 126.27 338.031 121.534C339.199 119.116 338.015 123.008 338.122 123.281C343.686 113.279 354.558 102.142 358.002 91.6843Z" fill="white"/>
<path d="M300.274 62.9778C287.531 69.3782 272.296 76.7557 261.905 86.4267C255.355 91.7756 244.922 95.4768 240.65 102.912C223.974 108.377 196.476 135.875 175.42 147.931C172.39 151.375 170.907 154.165 168.945 155.606C171.454 149.537 166.569 157.196 165.592 157.138C165.592 157.138 156.426 161.725 155.341 163.497C141.927 174.874 128.762 188.445 115.291 198.993C105.553 211.86 92.0073 220.29 86.2775 235.367C85.3916 235.508 84.5139 236.866 84.2241 237.653C85.4827 231.335 75.9358 249.352 72.3423 251.903C69.9328 255.223 67.9042 258.129 66.124 260.969C69.2953 258.626 75.6626 254.42 78.0389 251.397C90.2437 243.291 101.96 235.616 111.631 224.438C109.942 222.227 110.596 219.627 112.119 217.499C113.138 213.864 112.119 218.907 112.31 219.23C112.484 224.363 113.817 221.258 116.731 218.162C119.356 215.073 121.906 213.566 123.173 210.138C126.287 208.35 128.613 207.464 130.807 204.98C140.462 194.895 154.356 186.689 161.435 174.327C162.487 170.543 162.495 173.739 163.455 175.42C165.583 171.628 170.767 168.183 173.805 165.981C178.119 162.561 179.966 160.781 184.106 158.082C184.189 156.55 188.03 149.247 187.111 152.153C195.706 151.433 199.68 138.682 208.971 138.044C213.144 135.411 216.911 129.392 220.886 128.141C220.778 126.883 223.61 122.677 223.047 124.788C227.253 124.333 229.348 118.777 233.099 116.955C239.863 113.676 247.083 107.549 252.143 101.621C257.897 95.8577 271.526 91.3119 276.751 82.4275C282.24 83.8931 297.533 69.0884 300.274 62.9778Z" fill="white"/>
</svg>
