<svg width="419" height="378" viewBox="0 0 419 378" fill="none" xmlns="http://www.w3.org/2000/svg">
<path d="M418.013 0.697266C409.29 8.31568 399.105 20.7893 389.408 27.8946C374.158 36.2893 360.632 46.7104 350.197 60.013C329.29 76.9077 345.711 69.4998 336.54 88.2367C336.645 78.513 337.487 71.7367 328.948 84.1051C322.908 90.2104 320.026 94.934 315.724 101.105C302.158 106.197 297.855 117.684 286.434 126.131C273.224 139.316 257.605 150.842 249.592 167.223L248.211 171.355C246.382 168.079 246.566 162.776 243.448 168.645C234.25 182.75 212.724 188.789 207.079 204.539C206.777 206.381 200.645 216.171 203.605 209.158C201.645 211.908 202.171 207.934 202.842 207.368C196.211 211.079 188.869 219.158 183.474 224.368C169.987 238.802 161.987 234.473 147.579 253.658C141.448 252.592 143.974 261.197 138.513 263.921C140.263 259.934 138.79 262.316 137.316 263.289C141.277 253.987 129.645 269.434 126.79 272.539C113.382 282.487 97.7897 291.894 87.5792 306.079C86.5661 306.184 84.2108 311.434 85.0397 307.394C83.2766 310.96 84.3687 307.131 84.2634 305.605C84.2371 307.381 77.0397 313.987 76.2371 315.052C69.9082 320.605 58.8292 325.789 52.6187 331.579C48.5529 332.579 44.8556 345 41.7503 340.079C26.8819 351.013 11.895 362.631 0.658203 377.868L4.03978 376.079C-6.86811 382.065 16.3424 371.276 16.5529 371.631C27.1056 363.144 47.5792 355.447 58.5924 346.131C62.395 337.237 71.2503 334.065 77.9608 328.658C88.066 321.644 103.54 313.368 108.737 301.973C108.434 304.618 108.329 304.105 109.606 302.987C107.684 308.829 112.592 302.96 115.29 301.25C143.408 281.316 172.448 256.197 199.369 234.644C211.211 226.921 227.816 217.276 234.316 203.947C274.013 182.355 328.513 121.342 365.632 80.6709C373.04 73.5525 380.987 55.6578 386.276 48.1314C388.132 44.2893 386.25 50.4735 386.421 50.9078C395.263 35.013 412.54 17.3157 418.013 0.697266Z" fill="#135449"/>
</svg>
