<svg width="592" height="658" viewBox="0 0 592 658" fill="none" xmlns="http://www.w3.org/2000/svg">
<path d="M472.829 85.8948C463.974 92.3553 449.632 103.908 444.855 113.592C426.829 124.513 412.974 146.658 395.066 157.895C392.855 164.211 395 171.355 386.119 167.868C389.132 170.934 374.948 177.316 376.053 178.947C368.619 181 367.619 188.171 362.342 190.855C365.474 184.447 360.882 192.474 360.105 193.066C358.342 194.395 346.948 202.737 350.869 203.039C341.342 208.355 332.974 217.882 325.132 225.474C319.382 227.974 319.092 232.724 319.816 237.934C319.737 238.303 318.263 246.013 318.342 242.487C319.132 238.71 318.158 234.447 317.013 231.842C312.908 237.171 306.684 242.118 302.461 247.066C302.158 251.526 293.829 266.895 299.592 254.105C300.737 249.316 298.145 254.026 299.237 249.421C293.079 253.855 286.408 261.947 280.777 266.868C268.974 275.553 259.619 288.421 249.579 297.46C238.987 306.105 231.869 311.382 221.053 320.724C211.369 326.171 208.5 335.25 201.474 335.118C202.908 338.855 200.671 341.816 197.908 344.342C199.658 340.316 201.474 339.329 197.027 343.092C197.382 340.316 201.829 336.395 196.987 340.658C185.355 347.5 185.75 365.224 171.816 361.697C168.895 374.5 165.934 362.921 162.303 374.987C160.119 376.802 155.737 375.75 156.145 379.421C151.184 383.224 142.579 389.855 139.921 395.487C134.395 396.684 131.474 406.276 128.737 407.671C120.487 402.013 122.369 420.434 117.329 423.829C115.29 411.474 110.777 423.789 105.803 426.5C97.5529 435.237 93.7766 439.197 85.6582 444.224C70.3687 464.263 56.7766 471.263 40.3424 489.079C41.7898 489.092 53.4213 483.895 59.5661 482.552C69.3029 478.276 77.5266 469.974 85.8687 464.829C89.6713 467.197 93.1187 459.592 94.2634 458.184C101.303 458.224 105.987 447.552 111.053 443.789C121.724 436.276 123.382 443.105 131.75 432.158C148.211 414.829 168.04 398.75 186.579 383.434C186.29 380.605 200.855 373.395 202.237 372.355C205.869 367.552 216.579 352.421 222.513 349.566C221.777 356.921 230.737 346.408 235.803 341.895C255.408 330.987 277.658 306.408 293.987 291.5C324.027 272.447 345.158 240.987 369.513 212.868C385.987 202.645 401.842 183.882 412.026 166.355C423.474 154.145 416.421 168.447 423.211 159.158C434.842 132.329 460.29 109.974 472.829 85.8948Z" fill="#135449"/>
<path d="M471.026 258.895C453.579 272.052 439.737 291.197 422.105 304.184C420.711 308.158 422.066 312.645 416.474 310.447C416.092 314.868 404.947 319.263 403.803 322.987C379.921 342.881 344.382 380.513 314.763 404.842C308.066 410.658 301.895 413.868 299.447 419.908C299.184 419.881 297.355 422.394 297.526 420.868C297.526 419.131 300.697 416.342 297.526 419.131C294.355 421.921 295.763 420.868 294.355 421.921C290.04 426.263 288.566 434.829 281.684 432.368C280.566 435.802 280.868 436.579 277.105 437.237C276.513 439.829 275.013 442.184 272.184 441.763C270.947 446.144 263.158 449.026 261.632 453.605C258.158 454.355 256.316 460.381 254.592 461.263C252.5 458.25 250.921 462.842 250.013 464.052C234.132 478.71 219.211 493.789 201.447 509.684C193.79 515.815 213.211 508.776 215.947 506.592C220.869 501.947 225.974 499.487 231.434 496.842C232.382 492.092 234.869 494.934 237.066 491.96C242.145 483.605 250.553 482.658 256.776 477.329C270.382 464.21 285.04 449.894 301.118 439.71C308.342 427.355 316.408 424.987 327.513 417.066C341.474 406.066 356.605 391.684 369.395 380.144C385.711 367.026 400 344.763 417.961 329.289C425.842 322.237 430.408 314.052 436.895 306.145C441.342 305.763 443.395 298.171 446.118 294.447C453.671 282.145 465.737 271.96 471.026 258.895Z" fill="#135449"/>
<path d="M503.013 145.697C494.29 153.316 484.105 165.789 474.408 172.895C459.158 181.289 445.632 191.71 435.197 205.013C414.29 221.908 430.711 214.5 421.54 233.237C421.645 223.513 422.487 216.737 413.948 229.105C407.908 235.21 405.026 239.934 400.724 246.105C387.158 251.197 382.855 262.684 371.434 271.131C358.224 284.316 342.605 295.842 334.592 312.223L333.211 316.355C331.382 313.079 331.566 307.776 328.448 313.645C319.25 327.75 297.724 333.789 292.079 349.539C291.777 351.381 285.645 361.171 288.605 354.158C286.645 356.908 287.171 352.934 287.842 352.368C281.211 356.079 273.869 364.158 268.474 369.368C254.987 383.802 246.987 379.473 232.579 398.658C226.448 397.592 228.974 406.197 223.513 408.921C225.263 404.934 223.79 407.316 222.316 408.289C226.277 398.987 214.645 414.434 211.79 417.539C198.382 427.487 182.79 436.894 172.579 451.079C171.566 451.184 169.211 456.434 170.04 452.394C168.277 455.96 169.369 452.131 169.263 450.605C169.237 452.381 162.04 458.987 161.237 460.052C154.908 465.605 143.829 470.789 137.619 476.579C133.553 477.579 129.856 490 126.75 485.079C111.882 496.013 96.895 507.631 85.6582 522.868L89.0398 521.079C78.1319 527.065 101.342 516.276 101.553 516.631C112.106 508.144 132.579 500.447 143.592 491.131C147.395 482.237 156.25 479.065 162.961 473.658C173.066 466.644 188.54 458.368 193.737 446.973C193.434 449.618 193.329 449.105 194.606 447.987C192.684 453.829 197.592 447.96 200.29 446.25C228.408 426.316 257.448 401.197 284.369 379.644C296.211 371.921 312.816 362.276 319.316 348.947C359.013 327.355 413.513 266.342 450.632 225.671C458.04 218.552 465.987 200.658 471.276 193.131C473.132 189.289 471.25 195.474 471.421 195.908C480.263 180.013 497.54 162.316 503.013 145.697Z" fill="#135449"/>
<path d="M411.276 100.079C391.026 110.25 366.816 121.974 350.303 137.342C339.895 145.842 323.316 151.724 316.526 163.539C290.026 172.224 246.329 215.921 212.869 235.079C208.053 240.552 205.698 244.987 202.579 247.276C206.566 237.631 198.803 249.802 197.25 249.71C197.25 249.71 182.684 257 180.961 259.816C159.645 277.895 138.724 299.46 117.316 316.223C101.842 336.671 80.316 350.066 71.2107 374.026C69.8029 374.25 68.4081 376.408 67.9476 377.658C69.9476 367.618 54.7765 396.25 49.066 400.302C45.2371 405.579 42.0134 410.197 39.1844 414.71C44.2239 410.987 54.3423 404.302 58.1186 399.5C77.5134 386.618 96.1318 374.421 111.5 356.658C108.816 353.145 109.855 349.013 112.277 345.631C113.895 339.855 112.277 347.868 112.579 348.381C112.855 356.539 114.974 351.605 119.605 346.684C123.777 341.776 127.829 339.381 129.842 333.934C134.79 331.092 138.487 329.684 141.974 325.737C157.316 309.71 179.395 296.671 190.645 277.026C192.316 271.013 192.329 276.092 193.855 278.763C197.237 272.737 205.474 267.263 210.303 263.763C217.158 258.329 220.092 255.5 226.671 251.21C226.803 248.776 232.908 237.171 231.448 241.789C245.105 240.645 251.421 220.381 266.184 219.368C272.816 215.184 278.803 205.618 285.119 203.631C284.947 201.631 289.447 194.947 288.553 198.303C295.237 197.579 298.566 188.75 304.526 185.855C315.276 180.645 326.75 170.908 334.79 161.487C343.934 152.329 365.592 145.105 373.895 130.987C382.618 133.316 406.921 109.789 411.276 100.079Z" fill="#135449"/>
</svg>
