<svg width="440" height="498" viewBox="0 0 440 498" fill="none" xmlns="http://www.w3.org/2000/svg">
<path d="M176.519 285.895C173.017 284.493 168.114 283.793 165.312 285.194C157.606 287.997 168.814 315.325 144.998 312.522C127.486 310.42 122.583 259.968 126.786 229.837C126.786 229.837 131.689 222.129 141.496 217.224C138.694 215.823 134.491 214.421 130.988 211.618C112.076 232.64 86.1582 238.946 86.1582 238.946C81.9554 240.348 77.7525 241.749 73.5497 243.151H72.8492C68.6464 244.552 65.144 245.253 61.6416 245.954C11.2076 257.165 0 229.837 0 229.837C6.30426 268.377 62.3421 257.866 62.3421 257.866L63.0426 256.464C69.3468 302.712 88.9601 354.565 147.099 355.266C163.21 355.266 189.828 341.252 186.326 299.208C186.326 292.902 182.123 287.296 176.519 285.895Z" fill="#D5E5D1"/>
<path d="M245.866 242.45C261.977 245.953 295.6 203.91 335.527 184.991C376.855 166.071 393.666 101.605 369.149 50.452C369.149 50.452 346.734 0.700722 313.812 0C280.89 0 230.456 18.2188 230.456 18.2188C198.935 11.2116 182.824 17.5181 171.616 18.2188C160.408 18.9195 123.984 62.3643 123.984 62.3643C123.984 62.3643 92.4626 109.313 84.7574 141.546C77.7526 172.378 58.8399 176.582 60.9413 228.435C88.9602 219.326 106.472 201.107 109.274 199.706C119.781 195.501 128.887 200.406 132.39 203.91C134.491 205.312 140.795 210.917 151.302 212.319C156.906 213.019 163.911 211.618 174.418 204.611C175.118 203.91 175.819 203.91 176.519 203.209C185.626 189.195 187.026 164.67 187.026 164.67C191.229 176.582 188.427 189.896 185.626 199.005C192.63 196.903 200.335 194.801 216.446 187.093C216.446 187.093 217.847 157.662 231.857 124.028C245.166 92.4953 246.567 81.2837 246.567 79.8823C246.567 81.2837 243.765 105.108 231.857 151.356C219.949 201.107 229.755 238.946 245.866 242.45ZM144.998 119.123C144.998 119.123 144.998 117.721 151.302 114.918C157.607 112.116 166.713 111.415 166.713 111.415C166.713 111.415 159.008 135.94 144.998 119.123Z" fill="#D5E5D1"/>
<path d="M681.56 386.798C690.667 367.879 685.063 356.667 681.56 348.959C678.058 341.251 680.16 309.719 680.16 309.719C683.662 282.391 680.86 222.829 680.16 206.713C678.759 180.085 666.851 165.37 664.749 162.567C647.237 121.225 606.61 68.6707 573.688 58.1598C530.258 44.8461 465.815 50.4519 438.496 44.8461C411.178 39.2403 388.062 26.6273 388.062 26.6273C388.062 26.6273 377.555 21.7223 364.947 19.6201C364.947 19.6201 392.265 46.2476 392.265 99.5024C392.265 152.757 362.145 186.392 346.734 192.698C331.324 199.005 327.121 204.611 310.31 215.822C293.498 227.034 275.987 250.858 258.475 253.661C249.369 255.763 241.663 254.362 241.663 254.362C241.663 254.362 243.064 257.866 250.069 269.778C257.074 281.69 266.88 301.31 266.88 301.31L268.281 261.369C271.083 278.887 273.185 294.303 273.185 294.303C273.185 344.054 282.291 353.164 285.793 373.485C291.397 405.718 299.102 428.141 298.402 446.36C297.701 457.571 286.494 463.177 280.89 465.279C275.286 468.082 270.383 472.287 268.281 478.593C259.876 505.921 328.522 497.513 350.937 493.308C376.154 488.403 353.739 451.966 353.739 451.966C353.739 451.966 355.84 398.01 353.739 383.996C351.638 369.981 357.241 320.931 357.241 320.931C376.855 289.398 371.951 234.041 371.951 234.041C371.951 234.041 379.657 266.274 378.256 281.69C375.454 310.42 368.449 321.631 368.449 321.631L399.97 336.346C491.732 360.872 543.567 344.054 543.567 344.054C556.876 368.58 589.098 384.696 598.204 436.55C601.006 453.367 579.291 457.571 575.789 478.593C571.586 500.315 621.32 492.607 643.735 490.505C666.15 487.702 654.943 455.469 654.943 455.469C657.044 423.236 639.532 367.178 649.339 332.843C659.145 298.507 660.546 257.165 660.546 241.749C660.546 235.442 661.947 227.735 664.049 220.027C666.851 238.245 666.851 263.471 666.851 282.391C666.851 314.624 671.053 350.361 671.053 350.361C658.445 379.09 670.353 400.112 673.155 404.316C675.256 403.616 675.957 398.711 681.56 386.798Z" fill="#D5E5D1"/>
<path d="M288.595 423.937C283.691 400.112 269.682 383.996 275.286 369.28C275.286 369.28 264.078 319.529 264.078 312.522L259.175 304.814C259.175 304.814 224.852 355.967 227.654 378.39C229.755 400.813 245.165 410.623 250.069 428.141C254.972 446.36 239.562 460.374 247.267 466.681L259.175 472.287C259.175 472.287 264.078 461.075 274.585 454.068C285.092 447.061 292.798 447.761 288.595 423.937Z" fill="#D5E5D1"/>
</svg>
