<svg width="440" height="464" viewBox="0 0 440 464" fill="none" xmlns="http://www.w3.org/2000/svg">
<path d="M319.164 317.079C319.164 317.079 280.969 321.577 251.76 313.331C251.76 313.331 277.973 359.806 287.709 371.8C298.194 383.793 304.186 416.026 298.194 416.026C291.454 416.026 291.454 416.026 291.454 416.026C291.454 416.026 283.964 418.275 282.467 428.769C280.969 439.263 314.671 445.26 327.403 435.515C340.135 425.021 339.386 390.539 332.645 377.047C326.654 364.304 319.164 317.079 319.164 317.079Z" fill="#D5E5D1"/>
<path d="M701.871 313.331C697.377 321.577 679.403 317.079 679.403 317.079C637.462 307.335 597.02 176.905 597.02 176.905C570.058 98.9468 441.241 117.687 431.505 119.186C431.505 119.186 431.505 119.186 387.318 122.934C343.131 126.682 317.667 121.435 287.709 116.937L251.76 129.68L269.735 142.423C269.735 142.423 243.522 152.168 227.794 155.166L244.271 165.661C244.271 165.661 192.594 174.656 185.854 183.651C179.114 192.646 171.624 200.142 170.126 239.121C169.377 257.861 167.131 273.603 164.135 284.847C164.135 288.595 164.135 290.843 164.135 290.843C164.135 290.843 147.658 335.07 131.931 356.808C116.203 378.546 115.454 401.034 113.956 424.271C112.458 447.509 125.939 449.008 140.169 449.008C154.399 449.008 158.143 413.028 159.641 408.53C161.139 404.782 171.624 377.797 190.348 359.057C209.82 341.066 240.526 298.339 240.526 298.339L266.739 254.863L250.263 302.087C250.263 302.087 268.237 310.333 294.45 309.583C313.173 308.834 335.641 300.588 359.607 298.339C418.773 293.092 432.254 264.608 448.731 267.606C465.207 270.604 459.965 314.83 475.692 326.824C491.42 338.818 500.407 378.546 510.892 398.036C521.377 417.525 510.892 438.514 510.892 438.514C510.892 438.514 504.152 436.265 491.42 442.262C484.679 445.26 485.428 451.257 487.675 455.755C489.922 461.002 495.913 464 501.905 464H528.867C540.85 464 544.594 456.504 544.594 456.504C544.594 456.504 556.577 434.766 557.326 412.278C558.824 390.54 550.586 386.042 550.586 380.045C550.586 373.299 546.841 308.834 564.816 270.604C582.79 232.375 582.79 200.142 582.79 200.142C582.79 200.142 612.747 263.108 623.233 284.097C644.952 326.824 686.143 332.071 694.381 330.572C702.62 329.073 717.598 344.065 730.33 326.074C743.062 308.084 706.364 305.086 701.871 313.331Z" fill="#D5E5D1"/>
<path d="M116.952 230.126C116.952 230.126 122.943 260.859 126.688 272.103C130.433 283.347 142.416 293.092 142.416 293.092C142.416 293.092 141.667 284.097 140.169 275.851C146.16 282.598 153.65 288.594 163.386 293.092C164.135 290.843 164.884 288.594 164.884 285.596C164.884 284.097 164.884 282.598 164.884 281.099C164.884 275.102 163.386 239.871 164.884 212.136C164.884 208.388 165.633 204.64 165.633 201.641V200.892C166.382 197.893 166.382 194.895 167.131 191.897V191.147C167.131 190.397 167.88 188.898 167.88 188.149V187.399C167.88 185.9 168.628 185.15 168.628 184.401C168.628 184.401 168.628 184.401 168.628 183.651C168.628 182.901 169.377 182.152 169.377 181.402V180.653C170.126 179.903 170.126 179.153 170.875 178.404C182.109 164.162 197.837 172.407 219.556 161.163C219.556 161.163 200.833 150.669 194.841 146.921C188.85 143.173 224.05 150.669 250.262 139.425L231.539 129.68L271.233 114.688L275.726 113.189C282.467 110.191 287.709 107.192 287.709 107.192C272.731 108.691 244.271 91.4507 230.041 81.706C221.803 74.21 215.062 67.4636 212.067 62.2165C207.573 54.7205 196.339 44.2262 180.611 34.4814C190.348 32.9822 199.335 29.9838 202.331 28.4846C200.084 29.2342 193.343 29.2342 172.373 22.4879C158.892 17.9903 150.654 17.2407 145.411 17.2407C144.663 17.2407 144.663 17.2407 143.914 16.4911C159.641 9.74474 164.884 0 164.884 0C164.884 0 160.39 3.74797 130.433 5.24716C117.701 5.99676 107.965 7.49595 101.224 8.99514C74.2626 13.4927 72.0158 41.9774 69.02 47.2245C60.7817 48.7237 54.7903 50.2229 53.2924 52.4717C42.0583 65.2149 13.5988 86.9531 1.61582 96.6979C-2.87779 100.446 3.11369 107.192 6.10944 112.439C7.60731 116.187 6.10943 119.935 9.10518 124.433C9.10518 124.433 18.8413 132.679 27.8286 129.68L39.8115 140.174V125.932C44.3052 125.183 53.2924 124.433 56.2881 127.431C57.786 128.931 58.5349 131.179 58.5349 132.678C55.5392 133.428 48.0498 136.426 39.8115 141.674L31.5733 138.675L33.0711 146.171C28.5775 149.17 28.5775 149.919 28.5775 149.919C29.3264 152.918 31.5732 161.163 40.5605 163.412C54.0413 167.16 60.7817 154.417 71.2668 149.17C77.2583 140.174 101.224 102.695 100.475 95.9483C99.7264 87.7027 105.718 62.2165 105.718 62.2165C105.718 62.2165 104.22 78.7076 105.718 89.2019C107.216 99.6963 101.973 111.69 95.2328 121.435C88.4924 131.179 74.2626 158.914 73.5136 160.414C72.7647 164.911 72.0158 169.409 72.7647 173.157C72.7647 173.157 74.2626 190.397 86.2456 199.393C97.4796 208.388 99.7264 213.635 99.7264 213.635C99.7264 213.635 98.9775 202.391 97.4796 194.895C98.9775 195.645 100.475 196.394 102.722 197.893C108.714 203.141 111.709 215.134 116.952 230.126ZM51.0456 77.958C51.0456 77.958 54.0413 62.9661 71.2668 71.2116C71.2668 71.2116 59.2839 78.7076 51.0456 77.958ZM113.207 51.7221C113.207 44.9758 112.458 38.2294 110.96 37.4798C109.463 36.7302 107.965 36.7302 106.467 36.7302C103.471 37.4798 101.224 38.979 99.7264 41.2278L95.2328 47.2245L87.7434 44.9758C87.7434 44.9758 98.9775 19.4895 111.709 20.9887C124.441 22.4879 120.697 53.2213 120.697 53.2213L113.207 51.7221Z" fill="#D5E5D1"/>
</svg>
