<svg width="385" height="407" viewBox="0 0 385 407" fill="none" xmlns="http://www.w3.org/2000/svg">
<path fill-rule="evenodd" clip-rule="evenodd" d="M165 189.877C219.866 190.713 272.973 238.622 298.58 298.762C314.199 335.541 310.943 369.416 299.152 391.325C287.448 413.058 250.885 410.902 226.598 392.513C208.075 378.479 187.219 368.184 165 366.996C142.737 368.184 121.925 378.435 103.402 392.513C79.1147 410.946 42.5519 413.102 30.8483 391.325C19.1007 369.416 15.8008 335.541 31.4203 298.762C57.0275 238.622 110.134 190.713 165 189.877ZM-31.9377 121.247C-55.7409 132.817 -62.1647 169.86 -46.2812 203.955C-30.3977 238.051 1.72124 256.396 25.5245 244.826C49.3277 233.255 55.7515 196.212 39.868 162.117C23.9845 128.022 -8.17844 109.721 -31.9377 121.247ZM84.1306 0.439849C115.546 -4.13551 146.037 28.156 152.24 72.5457C158.4 116.979 137.941 156.706 106.482 161.325C75.0669 165.901 44.5759 133.609 38.3721 89.2194C32.2123 44.7856 52.7156 5.01521 84.1306 0.439849ZM361.938 121.247C338.134 109.677 306.015 128.022 290.132 162.117C274.249 196.256 280.672 233.299 304.476 244.826C328.279 256.396 360.398 238.051 376.281 203.955C392.165 169.86 385.741 132.817 361.938 121.247ZM245.869 0.439849C277.284 5.01521 297.788 44.7856 291.628 89.2194C285.468 133.653 254.977 165.945 223.518 161.325C192.103 156.75 171.6 116.979 177.76 72.5457C183.919 28.112 214.41 -4.1795 245.869 0.439849Z" fill="#D5E5D1"/>
</svg>
